<svg xmlns="http://www.w3.org/2000/svg" xml:space="preserve" id="Layer_1" width="800" height="800" viewBox="0 0 290.626 290.626"><circle cx="145.313" cy="173.438" r="84.375" style="fill:#f9ba48"/><path d="M276.563 65.625h-37.509c-.042-6.08-3.947-11.213-9.366-13.172V42.347c0-18.178-14.794-32.972-32.972-32.972H94.003c-18.183 0-33.066 14.794-33.066 32.972V52.42c-4.688 1.936-9.323 7.092-9.366 13.205H14.063C6.309 65.625 0 71.935 0 79.688v187.5c0 7.753 6.309 14.063 14.063 14.063h262.5c7.753 0 14.063-6.309 14.063-14.063v-187.5c-.001-7.753-6.31-14.063-14.063-14.063m-178.135 0c-.042-6.08-3.947-11.213-9.366-13.172v-6.609c0-4.598 3.745-8.344 8.344-8.344h95.813c4.598 0 8.344 3.745 8.344 8.344v6.605c-5.419 1.959-9.323 7.097-9.366 13.172H98.428zm107.916-4.687h18.563a4.79 4.79 0 0 1 4.781 4.688h-28.125a4.79 4.79 0 0 1 4.781-4.688M70.313 42.347c0-13.013 10.678-23.597 23.691-23.597h102.713c13.013 0 23.597 10.584 23.597 23.597v9.216h-9.375v-5.719c0-9.769-7.95-17.719-17.719-17.719H97.406c-9.769 0-17.719 7.95-17.719 17.719v5.719h-9.375zm-4.594 18.591h18.563a4.79 4.79 0 0 1 4.781 4.688H60.938a4.79 4.79 0 0 1 4.781-4.688M14.063 75h262.5a4.696 4.696 0 0 1 4.688 4.688v56.836l-52.172 6.956c-12.342-34.392-45.178-59.105-83.766-59.105s-71.424 24.712-83.766 59.105l-52.172-6.956V79.688A4.696 4.696 0 0 1 14.063 75m180.83 93.75a128 128 0 0 0-.225-4.298c4.298-2.156 7.284-6.563 7.284-11.691 0-6.712-5.081-12.197-11.588-12.97-.9-3.089-1.894-6.028-2.991-8.813 5.85-3.15 11.334-7.017 16.43-11.475 12.113 13.13 19.847 30.291 20.958 49.247zM150 97.327c6.722 4.683 17.227 13.809 25.097 29.1-7.931 3.202-16.397 5.03-25.097 5.536zm-26.386 13.223c0 2.067-1.683 3.75-3.75 3.75s-3.75-1.683-3.75-3.75 1.683-3.75 3.75-3.75 3.75 1.683 3.75 3.75m-6.398 12.858c.853.173 1.739.267 2.648.267 7.238 0 13.125-5.888 13.125-13.125 0-2.077-.53-4.017-1.392-5.766 3.328-3.192 6.445-5.644 9.028-7.444v34.622c-8.7-.506-17.161-2.334-25.092-5.531.53-1.026 1.116-2.02 1.683-3.023m23.409 17.93v27.412h-35.489c.45-12.239 2.658-23.517 6.595-33.731 9.118 3.713 18.872 5.798 28.894 6.319m0 36.787v27.328c-.342.019-.68.052-1.022.075-2.245-4.012-6.492-6.764-11.409-6.764-6.792 0-12.328 5.203-12.994 11.817a82 82 0 0 0-3.445 1.327c-3.609-9.319-6.056-20.55-6.558-33.778h35.428zm-8.681 33.76c0 2.067-1.683 3.75-3.75 3.75s-3.75-1.683-3.75-3.75 1.683-3.75 3.75-3.75 3.75 1.682 3.75 3.75m-14.203 7.851c2.395 3.183 6.169 5.273 10.453 5.273 5.827 0 10.725-3.844 12.431-9.112v33.647c-6.684-4.673-17.081-13.842-24.942-29.02a83 83 0 0 1 2.058-.788M150 249.614v-34.669a79.5 79.5 0 0 1 25.059 5.625c-7.874 15.338-18.327 24.432-25.059 29.044m0-44.151v-27.338h35.428c-.492 13.261-2.906 24.488-6.469 33.792A88.9 88.9 0 0 0 150 205.463m0-36.713v-27.412c10.022-.52 19.767-2.606 28.884-6.319a92 92 0 0 1 2.386 7.045c-3.356 2.381-5.569 6.277-5.569 10.692 0 5.991 4.059 11.002 9.553 12.567.075 1.13.112 2.273.155 3.422H150zm38.827-12.239c-2.067 0-3.75-1.683-3.75-3.75s1.683-3.75 3.75-3.75 3.75 1.683 3.75 3.75-1.678 3.75-3.75 3.75m-5.269-34.153c-6.089-11.962-13.641-20.555-20.302-26.494a79.4 79.4 0 0 1 33.806 17.1c-4.209 3.614-8.718 6.764-13.504 9.394m-58.819-23.967c-1.148-.464-2.386-.722-3.67-.839 2.091-.67 4.233-1.214 6.394-1.711a87 87 0 0 0-2.724 2.55m-15.403 19.922c-.769 1.341-1.542 2.681-2.245 4.059-4.791-2.63-9.309-5.789-13.528-9.408 4.936-4.233 10.402-7.838 16.27-10.772-1.903 2.278-3.094 5.17-3.094 8.363 0 2.911.985 5.578 2.597 7.758m-22.514 1.19c5.091 4.453 10.575 8.325 16.425 11.475-4.514 11.452-7.017 24.084-7.481 37.772H65.864c1.111-18.956 8.841-36.117 20.958-49.247m8.906 58.622c.502 14.897 3.338 27.413 7.416 37.842a89.8 89.8 0 0 0-16.383 11.339c-12.08-13.12-19.791-30.258-20.897-49.181zm11.302 46.5c6.042 11.85 13.556 20.428 20.198 26.348a79.4 79.4 0 0 1-33.633-17.03 81 81 0 0 1 13.435-9.318m76.566 0a79.4 79.4 0 0 1 13.444 9.309 79.4 79.4 0 0 1-33.647 17.039c6.642-5.92 14.16-14.498 20.203-26.348m20.273 2.672a89.2 89.2 0 0 0-16.378-11.348c4.073-10.425 6.909-22.936 7.406-37.823h29.864c-1.106 18.918-8.812 36.056-20.892 49.171m72.694 44.578h-262.5a4.696 4.696 0 0 1-4.688-4.688V145.978l49.444 6.595c-1.617 6.703-2.569 13.669-2.569 20.864 0 49.111 39.952 89.063 89.063 89.063s89.063-39.952 89.063-89.063c0-7.195-.952-14.161-2.569-20.864l49.444-6.595v121.209a4.696 4.696 0 0 1-4.688 4.688" style="fill:#333"/></svg>